<svg width="23" height="21" viewBox="0 0 23 21" fill="none" xmlns="http://www.w3.org/2000/svg">
<path d="M11.0086 5.11587C7.88535 5.11587 5.36617 7.51975 5.36617 10.5C5.36617 13.4803 7.88535 15.8841 11.0086 15.8841C14.1318 15.8841 16.651 13.4803 16.651 10.5C16.651 7.51975 14.1318 5.11587 11.0086 5.11587ZM11.0086 14.0004C8.99026 14.0004 7.34027 12.4306 7.34027 10.5C7.34027 8.5694 8.98535 6.99961 11.0086 6.99961C13.0318 6.99961 14.6769 8.5694 14.6769 10.5C14.6769 12.4306 13.0269 14.0004 11.0086 14.0004ZM18.1978 4.89563C18.1978 5.59383 17.6085 6.15146 16.8818 6.15146C16.1501 6.15146 15.5657 5.58914 15.5657 4.89563C15.5657 4.20211 16.155 3.6398 16.8818 3.6398C17.6085 3.6398 18.1978 4.20211 18.1978 4.89563ZM21.9349 6.1702C21.8514 4.48795 21.4487 2.99782 20.1572 1.77011C18.8706 0.542396 17.309 0.15815 15.546 0.0738034C13.7291 -0.0246011 8.28312 -0.0246011 6.46616 0.0738034C4.70813 0.153464 3.14653 0.537711 1.85502 1.76542C0.563503 2.99314 0.165736 4.48326 0.0773435 6.16551C-0.0257812 7.89931 -0.0257812 13.096 0.0773435 14.8298C0.160825 16.512 0.563503 18.0022 1.85502 19.2299C3.14653 20.4576 4.70322 20.8419 6.46616 20.9262C8.28312 21.0246 13.7291 21.0246 15.546 20.9262C17.309 20.8465 18.8706 20.4623 20.1572 19.2299C21.4438 18.0022 21.8465 16.512 21.9349 14.8298C22.038 13.096 22.038 7.90399 21.9349 6.1702ZM19.5876 16.6901C19.2045 17.6086 18.463 18.3161 17.4956 18.6863C16.0469 19.2346 12.6094 19.1081 11.0086 19.1081C9.40767 19.1081 5.96527 19.2299 4.52153 18.6863C3.55903 18.3208 2.81751 17.6132 2.42957 16.6901C1.85502 15.3078 1.98761 12.0276 1.98761 10.5C1.98761 8.97239 1.85993 5.68755 2.42957 4.30989C2.8126 3.39144 3.55412 2.68387 4.52153 2.31368C5.97018 1.76542 9.40767 1.89194 11.0086 1.89194C12.6094 1.89194 16.0518 1.77011 17.4956 2.31368C18.4581 2.67918 19.1996 3.38676 19.5876 4.30989C20.1621 5.69223 20.0295 8.97239 20.0295 10.5C20.0295 12.0276 20.1621 15.3125 19.5876 16.6901Z" fill="white"/>
</svg>
