<svg width="22" height="20" viewBox="0 0 22 20" fill="none" xmlns="http://www.w3.org/2000/svg">
<path d="M19.7385 4.85622C19.7525 5.06933 19.7525 5.2825 19.7525 5.49561C19.7525 11.9959 15.2157 19.4858 6.92384 19.4858C4.36927 19.4858 1.9962 18.679 0 17.2785C0.362956 17.3241 0.711905 17.3393 1.08883 17.3393C3.19665 17.3393 5.13703 16.563 6.68653 15.2386C4.7043 15.1929 3.04313 13.7771 2.47078 11.8285C2.75 11.8741 3.02916 11.9046 3.32234 11.9046C3.72715 11.9046 4.132 11.8437 4.50888 11.7372C2.4429 11.2804 0.893362 9.30143 0.893362 6.91137V6.8505C1.49359 7.21586 2.19162 7.44421 2.93141 7.47462C1.71694 6.59165 0.921291 5.08456 0.921291 3.37954C0.921291 2.46616 1.1446 1.62888 1.53549 0.898152C3.75503 3.88192 7.09134 5.83047 10.8324 6.04363C10.7626 5.67827 10.7207 5.29773 10.7207 4.91713C10.7207 2.20735 12.7309 0 15.2296 0C16.5278 0 17.7004 0.593707 18.524 1.55278C19.543 1.33966 20.5202 0.928611 21.3857 0.365362C21.0506 1.50714 20.3387 2.4662 19.4035 3.07509C20.3108 2.96858 21.1903 2.6945 21.9999 2.31396C21.3858 3.28821 20.618 4.1559 19.7385 4.85622Z" fill="white"/>
</svg>
